<svg width="30" height="30" viewBox="0 0 30 30" fill="none" xmlns="http://www.w3.org/2000/svg">
<rect width="30" height="30" rx="5" fill="#FF580E"/>
<path d="M26.151 10.7256C21.9156 11.1741 19.2482 11.1415 18.4506 11.1007C18.3683 11.1071 18.3413 10.9723 18.4045 10.9331C20.7041 9.21451 21.552 7.98503 21.7862 7.59037C21.8316 7.53551 21.7756 7.45429 21.7098 7.45939C20.6147 7.42458 13.7354 7.29097 9.63229 7.95161C6.00231 8.5242 3.84911 11.2753 3.86199 14.851C3.87487 18.4266 6.09092 21.3863 9.29351 22.1304C17.4165 23.9986 22.933 18.0944 23.8435 17.0311C23.9054 16.975 23.8481 16.8768 23.7645 16.8661L19.5921 16.8476C19.4934 16.8553 19.465 16.7035 19.5611 16.6618C24.5272 14.3256 25.965 11.5273 26.2439 10.8553C26.2715 10.7847 26.2168 10.7205 26.1346 10.7269L26.151 10.7256Z" fill="white"/>
</svg>
