<svg xmlns="http://www.w3.org/2000/svg" width="26" height="26" fill="none" xmlns:v="https://vecta.io/nano"><path d="M18.713 11.06l-1.459-.603c.045-.475.044-.953-.001-1.425l1.458-.605a1.27 1.27 0 0 0 .686-1.659l-.724-1.745c-.268-.646-1.012-.954-1.659-.686l-1.457.605a7.54 7.54 0 0 0-1.009-1.007l.603-1.458a1.26 1.26 0 0 0 0-.972 1.26 1.26 0 0 0-.688-.686L12.718.096a1.27 1.27 0 0 0-1.658.688l-.603 1.458a7.51 7.51 0 0 0-1.425.001L8.426.786A1.27 1.27 0 0 0 6.768.1L5.023.824c-.646.268-.954 1.012-.686 1.659l.605 1.457c-.367.304-.705.642-1.007 1.009l-1.458-.603a1.26 1.26 0 0 0-.972 0 1.26 1.26 0 0 0-.687.687L.096 6.78a1.27 1.27 0 0 0 .688 1.658l1.458.603a7.51 7.51 0 0 0 .001 1.425l-1.458.605a1.26 1.26 0 0 0-.687.687 1.26 1.26 0 0 0 0 .972l.724 1.745a1.26 1.26 0 0 0 .688.687 1.26 1.26 0 0 0 .971-.001l1.458-.605a7.51 7.51 0 0 0 1.009 1.007l-.603 1.458a1.26 1.26 0 0 0 .688 1.659l1.746.722c.646.267 1.39-.041 1.658-.688l.603-1.459c.475.045.953.044 1.425-.001l.605 1.458a1.26 1.26 0 0 0 .687.686c.174.072.358.104.541.096.146-.006.292-.039.431-.096l1.745-.724a1.27 1.27 0 0 0 .686-1.659l-.605-1.458a7.53 7.53 0 0 0 1.007-1.009l1.458.603a1.26 1.26 0 0 0 1.659-.688l.722-1.745c.267-.646-.041-1.39-.688-1.658zM8.343 6.363a3.67 3.67 0 0 1 4.791 1.981 3.64 3.64 0 0 1 .002 2.806 3.64 3.64 0 0 1-1.983 1.985c-.405.168-.824.258-1.239.276-1.496.066-2.945-.796-3.552-2.257a3.67 3.67 0 0 1 1.981-4.791z" fill="url(#A)"/><path d="M26 20.869a.76.76 0 0 0-.76-.763l-1.021-.002a3.4 3.4 0 0 0-.443-1.074l.723-.72a.76.76 0 1 0-1.075-1.079l-.723.721a3.4 3.4 0 0 0-1.072-.446l.002-1.021c.001-.421-.341-.762-.761-.763a.76.76 0 0 0-.763.76l-.002 1.021a3.4 3.4 0 0 0-1.074.443l-.72-.723a.76.76 0 1 0-1.079 1.075l.721.723a3.4 3.4 0 0 0-.446 1.072l-1.021-.002a.76.76 0 0 0-.763.76.76.76 0 0 0 .707.761l.054.002 1.021.002a3.4 3.4 0 0 0 .443 1.074l-.723.72a.76.76 0 0 0 .483 1.299.76.76 0 0 0 .592-.22l.723-.72a3.4 3.4 0 0 0 1.073.446l-.002 1.021a.76.76 0 0 0 .706.761l.054.002a.76.76 0 0 0 .763-.761l.002-1.021a3.4 3.4 0 0 0 1.074-.443l.72.723a.76.76 0 0 0 1.077.002.76.76 0 0 0 .002-1.077l-.721-.723a3.4 3.4 0 0 0 .446-1.072l1.021.002a.76.76 0 0 0 .763-.761zm-3.785 1.35c-.363.362-.845.56-1.358.56s-.994-.201-1.355-.564-.56-.845-.559-1.358.201-.994.564-1.356.845-.56 1.358-.56l.137.005c.461.033.889.229 1.218.559.362.363.56.845.56 1.358s-.201.994-.564 1.356z" fill="url(#B)"/><defs><linearGradient id="A" x1="9.749" y1="0" x2="9.749" y2="19.498" gradientUnits="userSpaceOnUse"><stop stop-color="#ff5b51"/><stop offset="1" stop-color="#f68452"/></linearGradient><linearGradient id="B" x1="20.86" y1="15.721" x2="20.86" y2="26" gradientUnits="userSpaceOnUse"><stop stop-color="#ff5b51"/><stop offset="1" stop-color="#f68452"/></linearGradient></defs></svg>