<svg xmlns="http://www.w3.org/2000/svg" width="40" height="40" fill="none" xmlns:v="https://vecta.io/nano"><path d="M3.948 20c0 6.359 3.675 11.826 9.051 14.424L5.34 13.447C4.45 15.463 3.948 17.673 3.948 20zm26.883-.814c0-1.978-.696-3.373-1.315-4.42-.812-1.318-1.586-2.443-1.586-3.761 0-1.473 1.122-2.831 2.708-2.831h.193C28.007 5.537 24.178 3.947 20 3.947c-5.609 0-10.483 2.52-13.345 6.863h5.261c.851-.039.967 1.396.116 1.473 0 0-.851.116-1.818.155l5.841 17.371 3.52-10.547-2.553-6.786c-.851-.039-1.702-.155-1.702-.155-.851-.039-.774-1.551.116-1.512h8.51c.851-.039.967 1.396.116 1.512 0 0-.851.116-1.857.155l5.802 17.255 1.586-5.351c.851-2.094 1.238-3.839 1.238-5.196zm-10.521 2.21l-4.835 13.997c1.431.427 2.978.659 4.526.659 1.857 0 3.675-.31 5.338-.931l-.116-.233-4.913-13.493zm13.809-9.112c.077.504.116 1.047.116 1.667 0 1.628-.309 3.451-1.238 5.739l-4.913 14.191c4.758-2.792 7.968-7.949 7.968-13.881 0-2.792-.696-5.428-1.934-7.716z" fill="#c6c5d2"/><circle cx="20" cy="20" r="18.947" stroke="#ff93a6" stroke-width="2.105"/><path fill="#ff93a6" d="M5.356 7.204L6.98 5.58l26.576 26.576-1.623 1.623z"/></svg>