<svg width="100" height="32" viewBox="0 0 100 32" fill="none" xmlns="http://www.w3.org/2000/svg">
<path fill-rule="evenodd" clip-rule="evenodd" d="M30.3076 2.5V29.5H37.1197V21.0714C38.5254 20.8929 39.8589 20.6429 41.0844 20.2857C42.3459 19.9286 43.4632 19.3929 44.4003 18.6786C45.3735 17.9643 46.0943 17.0714 46.671 15.9643C47.2117 14.8214 47.5 13.4643 47.5 11.7857C47.5 10.4643 47.3198 9.32143 46.9954 8.35715C46.635 7.35715 46.2025 6.53572 45.5897 5.85714C45.0131 5.17857 44.2922 4.60714 43.4993 4.17857C42.7063 3.75 41.8053 3.39286 40.8681 3.14286C39.9671 2.89286 38.9579 2.75 37.9126 2.64286C36.8674 2.53572 35.8222 2.5 34.7769 2.5H30.3076ZM38.5254 14.3571C38.201 14.5 37.7685 14.5357 37.2999 14.5357V8.46428H37.8766C38.3091 8.46428 38.6695 8.57143 38.9579 8.75C39.2462 8.92857 39.4985 9.14286 39.6427 9.46429C39.8229 9.75 39.931 10.0714 40.0031 10.4643C40.1112 10.8214 40.1112 11.1786 40.1112 11.6071C40.1112 12.0357 40.0392 12.4286 39.931 12.7857C39.8229 13.1786 39.6427 13.4643 39.3904 13.75C39.1741 14 38.8858 14.2143 38.5254 14.3571Z" fill="#111827"/>
<path d="M27.3755 2.75117V29.4297H20.8157V2.75117H27.3755Z" fill="#111827"/>
<path d="M8.47003 8.96377H1.54984V2.82091H18.598L9.65944 23.4638H17.3365V29.428H0L8.47003 8.99947V8.96377Z" fill="#111827"/>
<path d="M99.7877 7.01L99.7703 7.01184C99.7645 7.01196 99.7587 7.01225 99.7528 7.0127L99.7877 7.01Z" fill="#FF580E"/>
<path d="M81.7658 14.1222C81.8623 14.2187 81.8623 14.476 81.8623 14.476L81.6051 15.9235C81.5729 16.0521 81.5086 16.1808 81.38 16.2773C81.2514 16.3738 80.9942 16.406 80.9942 16.406H77.3614C77.2649 16.406 77.2649 16.3095 77.2649 16.3095L77.6507 14.1222C77.6829 14.0257 77.7793 13.9935 77.7793 13.9935H81.4443C81.5729 13.9935 81.7015 14.0257 81.7658 14.1222Z" fill="#FF580E"/>
<path fill-rule="evenodd" clip-rule="evenodd" d="M99.7703 7.01184C99.9349 7.00838 100.041 7.14058 99.9846 7.28544C99.3931 8.71239 96.3426 14.655 85.8067 19.6164C85.6029 19.7049 85.6631 20.0273 85.8725 20.011L94.7246 20.0503C94.9019 20.0729 95.0234 20.2815 94.8922 20.4007C92.9605 22.6586 81.2568 35.1972 64.0234 31.2298C57.2289 29.6496 52.5274 23.3642 52.5001 15.7708C52.4728 8.17742 57.041 2.33493 64.7422 1.11895C73.4472 -0.284031 88.042 -0.000290461 90.3654 0.073647C90.505 0.0628025 90.6237 0.235291 90.5274 0.351798C90.0306 1.18991 88.2316 3.80091 83.3529 7.45065C83.2189 7.53374 83.2762 7.82003 83.4507 7.80647C85.1419 7.89303 90.7946 7.96225 99.7703 7.01184ZM73.9859 11.5822C73.9859 11.5822 74.1788 11.6144 74.2431 11.7109C74.2752 11.8074 74.2752 11.9039 74.2431 12.0004L69.26 20.9426C69.1314 21.1999 68.9385 21.2964 68.6813 21.2964H66.7202C66.7202 21.2964 66.4951 21.2964 66.3987 21.1999C66.3023 21.1034 66.2701 21.0391 66.2379 20.9426L65.3699 16.5036C65.3699 16.5036 65.3378 16.4071 65.2413 16.4071C65.1449 16.4071 65.1127 16.4071 65.1127 16.4715L62.573 20.9747C62.4444 21.1999 62.2193 21.3286 61.9943 21.3286H60.0332C60.0332 21.3286 59.8082 21.3286 59.7439 21.2321C59.6474 21.1677 59.6153 21.0712 59.5831 20.9747L57.8792 12.0325C57.8792 12.0325 57.8792 11.8395 57.9757 11.743C58.0721 11.6466 58.1686 11.6144 58.265 11.6144H60.5797C60.5797 11.6144 60.8048 11.6144 60.8691 11.7109C60.8883 11.7397 60.9075 11.7656 60.9258 11.7904C60.9689 11.8487 61.0073 11.9005 61.0298 11.9682L61.93 16.5036C61.93 16.5036 61.9621 16.6001 62.0586 16.6001C62.155 16.6001 62.1872 16.6001 62.2193 16.5358L64.7591 11.936C64.8877 11.7109 65.0806 11.5822 65.3378 11.5822H66.9452C66.9452 11.5822 67.1703 11.5822 67.2667 11.6787C67.3632 11.743 67.3953 11.8395 67.4275 11.936L68.2955 16.4715C68.2955 16.4715 68.3598 16.568 68.4241 16.6001C68.4884 16.6323 68.5527 16.6001 68.5527 16.5358L71.1246 11.936C71.2532 11.7109 71.4461 11.5822 71.7033 11.5822H73.9859ZM84.5306 16.3095L84.9164 14.09L84.9486 14.0578C85.0772 13.3502 84.9164 12.739 84.4985 12.2565C84.0805 11.774 83.5019 11.5167 82.7946 11.5167H75.7539C75.5932 11.5167 75.4646 11.581 75.336 11.6775C75.2074 11.774 75.111 12.0635 75.111 12.0635L73.5357 20.7484C73.5035 20.9092 73.5357 21.0379 73.6321 21.1344C73.7286 21.2309 73.9858 21.2952 73.9858 21.2952H75.8504C76.0111 21.2952 76.1397 21.2309 76.2683 21.1344C76.3969 21.0379 76.4934 20.7484 76.4934 20.7484L76.8149 18.9471C76.8149 18.8828 76.9435 18.8506 76.9435 18.8506H81.4443C82.1838 18.8506 82.8267 18.5933 83.4376 18.1108C84.0163 17.6283 84.402 17.0171 84.5306 16.3095Z" fill="#FF580E"/>
</svg>
